<?xml version="1.0" encoding="utf-8"?>
<!-- Generator: Adobe Illustrator 24.1.0, SVG Export Plug-In . SVG Version: 6.00 Build 0)  -->
<svg version="1.1" id="Layer_1" xmlns="http://www.w3.org/2000/svg" xmlns:xlink="http://www.w3.org/1999/xlink" x="0px" y="0px"
	 viewBox="0 0 1645.4 1141" style="enable-background:new 0 0 1645.4 1141;" xml:space="preserve">
<g>
	<path style="fill:#655BC1;" d="M625.6,230.5c12.7,0,23-10.3,23-23V74.1c0-12.7-10.3-23-23-23s-23,10.3-23,23v133.4
		C602.6,220.1,612.9,230.5,625.6,230.5z"/>
	<path style="fill:#655BC1;" d="M324.6,341.7c4.3,4.3,10.1,6.7,16.3,6.7s11.9-2.4,16.3-6.7c9-9,9-23.6,0-32.5l-94.3-94.3
		c-9-9-23.6-9-32.5,0s-9,23.6,0,32.5L324.6,341.7z"/>
	<path style="fill:#655BC1;" d="M245.9,610.1c0-12.7-10.3-23-23-23H89.5c-12.7,0-23,10.3-23,23s10.3,23,23,23h133.4
		C235.6,633.1,245.9,622.8,245.9,610.1z"/>
	<path style="fill:#655BC1;" d="M324.6,878.6l-94.3,94.3c-9,9-9,23.6,0,32.5c4.3,4.3,10.1,6.7,16.3,6.7s11.9-2.4,16.3-6.7l94.3-94.3
		c4.3-4.3,6.7-10.1,6.7-16.3s-2.4-11.9-6.7-16.3C348.1,869.6,333.5,869.6,324.6,878.6z"/>
	<path style="fill:#655BC1;" d="M910.3,348.4c6.1,0,11.9-2.4,16.3-6.7l94.3-94.3c4.3-4.3,6.7-10.1,6.7-16.3c0-6.1-2.4-11.9-6.7-16.3
		c-4.3-4.3-10.1-6.7-16.3-6.7s-11.9,2.4-16.3,6.7L894,309.1c-4.3,4.3-6.7,10.1-6.7,16.3c0,6.1,2.4,11.9,6.7,16.3
		C898.4,346,904.1,348.4,910.3,348.4z"/>
	<path style="fill:#655BC1;" d="M450.2,246.9L450.2,246.9c3.6,8.6,11.9,14.2,21.3,14.2c3,0,6-0.6,8.8-1.8
		c5.7-2.4,10.1-6.8,12.4-12.4s2.4-11.9,0-17.6l-24.4-58.8c-4.9-11.7-18.3-17.3-30.1-12.4c-5.7,2.4-10.1,6.8-12.4,12.4
		c-2.4,5.7-2.4,11.9,0,17.6L450.2,246.9z"/>
	<path style="fill:#655BC1;" d="M185.9,452.9l58.8,24.4c2.8,1.2,5.8,1.8,8.8,1.8c9.3,0,17.7-5.6,21.3-14.2c2.4-5.7,2.4-11.9,0-17.6
		s-6.8-10.1-12.4-12.4l-58.8-24.4c-5.7-2.4-11.9-2.4-17.6,0c-5.7,2.4-10.1,6.8-12.4,12.4c-2.4,5.7-2.4,11.9,0,17.6
		S180.3,450.6,185.9,452.9z"/>
	<path style="fill:#655BC1;" d="M274.8,755.4L274.8,755.4c-4.9-11.7-18.3-17.3-30.1-12.4l-58.8,24.4c-11.7,4.9-17.3,18.3-12.4,30.1
		c3.6,8.6,11.9,14.2,21.3,14.2c3,0,6-0.6,8.8-1.8l58.8-24.4C274.1,780.6,279.6,767.1,274.8,755.4z"/>
	<path style="fill:#655BC1;" d="M770.8,259.4L770.8,259.4c2.8,1.2,5.8,1.8,8.8,1.8c9.3,0,17.7-5.6,21.3-14.2l24.4-58.8
		c2.4-5.7,2.4-11.9,0-17.6c-2.4-5.7-6.8-10.1-12.4-12.4c-11.7-4.9-25.2,0.7-30.1,12.4l-24.4,58.8c-2.4,5.7-2.4,11.9,0,17.6
		C760.8,252.6,765.2,257,770.8,259.4z"/>
	<path style="fill:#655BC1;" d="M1558.9,772.9c-25.8-31.8-61.5-54.4-101.1-64c0-0.7,0-1.4,0-2.1c0-90.1-35.1-174.8-98.8-238.5
		c-63.7-63.7-148.4-98.8-238.5-98.8c-37.9,0-75.1,6.2-110.6,18.6c-29.8,10.3-57.9,24.8-83.7,43c-28-47-67.2-87.3-113.4-116.6
		c-56-35.5-120.7-54.3-187.3-54.3c-47.2,0-93.1,9.3-136.2,27.5c-41.7,17.6-79.1,42.9-111.2,75c-32.1,32.1-57.4,69.6-75,111.2
		c-18.3,43.2-27.5,89-27.5,136.2c0,65.2,18.1,128.9,52.3,184c29.4,47.4,70.1,87.5,117.9,116.2c-3.9,12.3-5.8,25.2-5.8,38.2
		c0,34.2,13.3,66.3,37.5,90.5c24.2,24.2,56.3,37.5,90.5,37.5H1414c49.8,0,96.6-19.4,131.9-54.6c35.2-35.2,54.6-82,54.6-131.9
		C1600.5,847.6,1585.7,806,1558.9,772.9z M1513.3,989.5c-26.5,26.5-61.8,41.1-99.3,41.1H567.9c-21.9,0-42.5-8.5-58-24
		c-15.5-15.5-24-36.1-24-58c0-45.2,36.8-82,82-82h41.7c7.3,0,14.2-3.5,18.5-9.3c4.3-5.8,5.6-13.5,3.5-20.4
		c-4.4-14.4-6.7-29.4-6.7-44.6c0-83.5,68-151.5,151.5-151.5c12.1,0,24.2,1.4,35.9,4.3c12.1,3,24.3-4.2,27.6-16.2
		c34.8-125.6,150.2-213.3,280.7-213.3c160.6,0,291.2,130.6,291.2,291.2c0,6.5-0.2,13.1-0.7,19.7c-0.8,12.2,8,22.9,20.1,24.4
		c70.2,8.6,123.1,68.5,123.1,139.4C1554.5,927.7,1539.9,962.9,1513.3,989.5L1513.3,989.5z M841.3,517.8
		c-16.5,24.4-29.8,50.8-39.4,78.6c-8.4-1.1-17-1.6-25.5-1.6c-108.9,0-197.5,88.6-197.5,197.5c0,9.5,0.7,19,2,28.4h-13
		c-39.2,0-76.5,18.3-100.7,49.1c-43.8-26.7-80.3-64.1-105.6-108.5c-26.2-45.7-40-98-40-151c0-167.6,136.4-303.9,303.9-303.9
		c54.9,0,108.6,14.6,155.3,42.3c45.4,26.9,83.2,65.6,109.4,112.1C871.8,477.7,855.4,497,841.3,517.8z"/>
</g>
</svg>
